<?xml version="1.0" encoding="UTF-8"?>
<svg id="a" xmlns="http://www.w3.org/2000/svg" width="968.78" height="432.31" viewBox="0 0 968.78 432.31">
    <path style="fill:#fff;" d="M64.29,167.27c-13.76,0-25.44-2.22-35.04-6.67-9.6-4.44-16.88-10.57-21.82-18.38-4.95-7.81-7.42-16.66-7.42-26.55h29.89c0,4.16,1.15,8.21,3.44,12.15,2.29,3.94,5.98,7.13,11.07,9.57,5.09,2.44,11.72,3.65,19.89,3.65,7.6,0,13.87-1.08,18.81-3.23,4.95-2.15,8.67-4.98,11.18-8.49,2.51-3.51,3.76-7.49,3.76-11.93,0-5.45-2.36-9.85-7.09-13.22-4.73-3.37-12.11-5.48-22.15-6.34l-13.76-1.29c-15.05-1.29-27.06-5.98-36.01-14.08-8.96-8.1-13.44-18.81-13.44-32.14,0-10.03,2.36-18.67,7.09-25.91,4.73-7.24,11.36-12.83,19.89-16.77,8.53-3.94,18.52-5.91,29.99-5.91s22.18,2.08,30.85,6.23c8.67,4.16,15.34,10,19.99,17.52,4.66,7.52,6.99,16.38,6.99,26.55h-29.89c0-4.16-1-8.06-3.01-11.72-2.01-3.65-5.09-6.63-9.25-8.92-4.16-2.29-9.39-3.44-15.69-3.44s-11,1.04-14.94,3.12c-3.94,2.08-6.92,4.8-8.92,8.17-2.01,3.37-3.01,7.06-3.01,11.07,0,4.87,1.79,9.14,5.38,12.79,3.58,3.65,9.24,5.77,16.98,6.34l13.54,1.29c11.32.86,21.18,3.23,29.56,7.1,8.39,3.87,14.94,9.1,19.67,15.69,4.73,6.59,7.1,14.55,7.1,23.87,0,9.89-2.58,18.6-7.74,26.12-5.16,7.52-12.51,13.37-22.04,17.52-9.53,4.16-20.82,6.23-33.86,6.23Z"/>
    <path style="fill:#fff;" d="M205.75,167.27c-10.03,0-18.81-1.72-26.34-5.16-7.52-3.44-13.76-8.06-18.71-13.87-4.94-5.81-8.67-12.29-11.18-19.46-2.51-7.17-3.76-14.48-3.76-21.93v-4.08c0-7.74,1.25-15.23,3.76-22.47,2.51-7.24,6.2-13.69,11.07-19.35,4.87-5.66,11-10.18,18.38-13.54,7.38-3.37,15.87-5.05,25.48-5.05,12.61,0,23.18,2.76,31.71,8.28,8.53,5.52,14.94,12.76,19.24,21.72,4.3,8.96,6.45,18.6,6.45,28.92v10.96h-103.42v-18.49h84.49l-9.03,9.03c0-7.45-1.11-13.83-3.33-19.13-2.22-5.3-5.48-9.39-9.78-12.26-4.3-2.87-9.75-4.3-16.34-4.3s-12.18,1.54-16.77,4.62c-4.59,3.08-8.06,7.42-10.43,13.01-2.37,5.59-3.55,12.33-3.55,20.21,0,7.31,1.15,13.8,3.44,19.46,2.29,5.66,5.81,10.1,10.54,13.33s10.75,4.84,18.06,4.84,13.04-1.47,17.63-4.41c4.59-2.94,7.52-6.56,8.81-10.86h27.74c-1.72,8.03-5.02,15.05-9.89,21.07-4.87,6.02-11.07,10.68-18.6,13.98-7.52,3.3-16.09,4.94-25.69,4.94Z"/>
    <path style="fill:#fff;" d="M286.81,163.19V46.44h23.65v49.45h-.64c0-16.63,3.58-29.27,10.75-37.95,7.17-8.67,17.7-13.01,31.6-13.01h4.3v26.02h-8.17c-10.03,0-17.81,2.72-23.33,8.17-5.52,5.45-8.28,13.26-8.28,23.44v60.63h-29.89Z"/>
    <path style="fill:#fff;" d="M420.97,209.41c-5.59,0-11.29-.22-17.09-.65-5.8-.43-11.15-1-16.02-1.72v-25.16c5.02.57,10.5,1.11,16.45,1.61,5.95.5,11.43.75,16.45.75,9.75,0,17.59-1.15,23.54-3.44,5.95-2.29,10.28-5.91,13.01-10.86,2.72-4.94,4.08-11.21,4.08-18.81v-23l6.45-14.62c-.29,10.89-2.44,20.07-6.45,27.52-4.01,7.45-9.46,13.15-16.34,17.09-6.88,3.94-14.83,5.91-23.87,5.91-8.03,0-15.34-1.47-21.93-4.41-6.59-2.94-12.22-7.1-16.88-12.47-4.66-5.38-8.24-11.61-10.75-18.71-2.51-7.09-3.76-14.73-3.76-22.9v-4.73c0-8.17,1.32-15.8,3.98-22.9,2.65-7.09,6.41-13.29,11.29-18.6,4.87-5.3,10.68-9.39,17.42-12.25,6.74-2.87,14.19-4.3,22.36-4.3,9.46,0,17.74,2.08,24.83,6.23,7.09,4.16,12.69,10.18,16.77,18.06,4.08,7.88,6.27,17.56,6.56,29.02l-5.16.86v-50.52h23.86v102.99c0,14.19-2.44,25.69-7.31,34.51-4.87,8.81-12.36,15.27-22.47,19.35s-23.11,6.13-39.02,6.13ZM429.78,138.46c5.73,0,10.96-1.29,15.69-3.87,4.73-2.58,8.49-6.31,11.29-11.18,2.79-4.87,4.19-10.75,4.19-17.63v-7.31c0-6.74-1.47-12.4-4.41-16.99-2.94-4.59-6.77-8.06-11.5-10.43-4.73-2.37-9.82-3.55-15.27-3.55-6.31,0-11.86,1.47-16.66,4.41-4.8,2.94-8.57,7.1-11.29,12.47-2.72,5.38-4.08,11.65-4.08,18.81s1.36,13.4,4.08,18.71c2.72,5.3,6.48,9.39,11.29,12.25,4.8,2.87,10.35,4.3,16.66,4.3Z"/>
    <path style="fill:#fff;" d="M511.7,68.8v-22.36h46.22v22.36h-46.22ZM539,32.46c-5.88,0-10.21-1.5-13.01-4.51-2.79-3.01-4.19-6.95-4.19-11.83s1.4-8.6,4.19-11.61c2.79-3.01,7.13-4.52,13.01-4.52s10.18,1.5,12.9,4.52c2.72,3.01,4.08,6.88,4.08,11.61s-1.36,8.81-4.08,11.83c-2.72,3.01-7.02,4.51-12.9,4.51ZM528.04,163.19V46.44h29.88v116.75h-29.88Z"/>
    <path style="fill:#fff;" d="M648.44,167.27c-10.32,0-19.42-1.65-27.3-4.94-7.88-3.3-14.55-7.74-20-13.33-5.45-5.59-9.57-11.97-12.36-19.14-2.79-7.17-4.19-14.69-4.19-22.57v-4.52c0-8.03,1.43-15.66,4.3-22.9,2.87-7.24,7.06-13.69,12.58-19.35,5.52-5.66,12.26-10.1,20.21-13.33,7.96-3.22,16.88-4.84,26.77-4.84s18.78,1.61,26.66,4.84c7.88,3.23,14.58,7.67,20.1,13.33,5.52,5.66,9.71,12.11,12.58,19.35,2.87,7.24,4.3,14.87,4.3,22.9v4.52c0,7.88-1.4,15.41-4.19,22.57-2.79,7.17-6.92,13.55-12.36,19.14-5.45,5.59-12.11,10.03-19.99,13.33-7.88,3.3-16.92,4.94-27.09,4.94ZM648.44,141.69c7.17,0,13.26-1.61,18.28-4.84,5.02-3.23,8.85-7.6,11.5-13.12,2.65-5.52,3.98-11.79,3.98-18.81s-1.36-13.33-4.09-18.92c-2.72-5.59-6.59-10-11.61-13.22-5.02-3.22-11.04-4.84-18.06-4.84s-13.08,1.61-18.17,4.84c-5.09,3.23-9,7.63-11.72,13.22-2.72,5.59-4.08,11.9-4.08,18.92s1.32,13.3,3.98,18.81c2.65,5.52,6.48,9.89,11.5,13.12,5.02,3.23,11.18,4.84,18.49,4.84Z"/>
    <path style="fill:#fff;" d="M83.85,397.27c-13.47,0-25.34-2.26-35.58-6.77-10.25-4.51-18.81-10.61-25.69-18.27-6.88-7.67-12.08-16.34-15.59-26.02-3.51-9.67-5.27-19.67-5.27-29.99v-4.73c0-9.89,1.68-19.56,5.05-29.02,3.37-9.46,8.38-18.02,15.05-25.69,6.67-7.67,14.91-13.76,24.73-18.28,9.82-4.51,21.1-6.77,33.86-6.77,13.9,0,26.16,2.58,36.77,7.74,10.61,5.16,19.13,12.29,25.58,21.39,6.45,9.1,10.25,19.6,11.4,31.5h-30.96c-.86-6.74-3.3-12.5-7.31-17.31-4.01-4.8-9.07-8.49-15.16-11.07-6.09-2.58-12.87-3.87-20.32-3.87s-13.73,1.29-19.67,3.87c-5.95,2.58-11,6.27-15.16,11.07-4.16,4.8-7.35,10.5-9.57,17.09-2.22,6.59-3.33,13.9-3.33,21.93,0,8.6,1.22,16.34,3.66,23.22,2.44,6.88,5.88,12.72,10.32,17.52,4.44,4.8,9.82,8.46,16.12,10.96,6.31,2.51,13.33,3.76,21.07,3.76,10.61,0,19.81-2.18,27.63-6.56,7.81-4.37,13.58-10.07,17.31-17.09l-5.38,24.72v-40.42h28.17v34.83c-6.74,10.18-15.91,18.1-27.52,23.76s-25.01,8.49-40.21,8.49ZM79.12,336.21v-22.79h85.57v22.79h-85.57Z"/>
    <path style="fill:#fff;" d="M243.59,397.27c-10.32,0-19.42-1.65-27.31-4.94-7.88-3.3-14.55-7.74-20-13.33-5.45-5.59-9.57-11.97-12.36-19.14-2.79-7.17-4.19-14.69-4.19-22.57v-4.52c0-8.03,1.43-15.66,4.3-22.9,2.87-7.24,7.06-13.69,12.58-19.35,5.52-5.66,12.25-10.11,20.21-13.33s16.88-4.84,26.77-4.84,18.78,1.61,26.66,4.84c7.88,3.22,14.58,7.67,20.1,13.33,5.52,5.66,9.71,12.11,12.58,19.35,2.87,7.24,4.3,14.87,4.3,22.9v4.52c0,7.88-1.4,15.41-4.19,22.57-2.79,7.17-6.92,13.55-12.36,19.14-5.45,5.59-12.11,10.03-20,13.33-7.88,3.29-16.91,4.94-27.09,4.94ZM243.59,371.69c7.17,0,13.26-1.61,18.27-4.84,5.02-3.23,8.85-7.6,11.5-13.12,2.65-5.52,3.98-11.79,3.98-18.81s-1.36-13.33-4.08-18.92c-2.72-5.59-6.59-10-11.61-13.22-5.02-3.22-11.04-4.84-18.06-4.84s-13.08,1.61-18.17,4.84c-5.09,3.22-9,7.63-11.72,13.22-2.72,5.59-4.08,11.9-4.08,18.92s1.32,13.3,3.98,18.81c2.65,5.52,6.48,9.89,11.5,13.12,5.02,3.22,11.18,4.84,18.49,4.84ZM228.54,261.6l19.14-44.07h30.96l-24.51,44.07h-25.58Z"/>
    <path style="fill:#fff;" d="M333.46,393.19v-116.75h23.65v50.1h-2.15c0-11.75,1.51-21.61,4.52-29.56s7.49-13.98,13.44-18.06c5.95-4.08,13.36-6.13,22.25-6.13h1.29c9.03,0,16.52,2.04,22.47,6.13,5.95,4.08,10.39,10.11,13.33,18.06,2.94,7.96,4.41,17.81,4.41,29.56h-7.52c0-11.75,1.54-21.61,4.62-29.56,3.08-7.96,7.6-13.98,13.54-18.06,5.95-4.08,13.36-6.13,22.25-6.13h1.29c9.03,0,16.55,2.04,22.57,6.13,6.02,4.08,10.57,10.11,13.65,18.06,3.08,7.96,4.62,17.81,4.62,29.56v66.65h-29.88v-69.23c0-7.45-1.9-13.36-5.7-17.74-3.8-4.37-9.07-6.56-15.8-6.56s-12.4,2.26-16.56,6.77c-4.16,4.51-6.23,10.64-6.23,18.38v68.37h-29.88v-69.23c0-7.45-1.9-13.36-5.7-17.74-3.8-4.37-9.07-6.56-15.8-6.56s-12.4,2.26-16.56,6.77c-4.16,4.51-6.23,10.64-6.23,18.38v68.37h-29.89Z"/>
    <path style="fill:#fff;" d="M595.97,397.27c-10.04,0-18.81-1.72-26.34-5.16-7.53-3.44-13.76-8.06-18.71-13.87s-8.67-12.29-11.18-19.46c-2.51-7.17-3.76-14.48-3.76-21.93v-4.08c0-7.74,1.25-15.23,3.76-22.47,2.51-7.24,6.2-13.69,11.07-19.35,4.87-5.66,11-10.18,18.38-13.54,7.38-3.37,15.87-5.05,25.48-5.05,12.61,0,23.18,2.76,31.71,8.28,8.53,5.52,14.94,12.76,19.24,21.72,4.3,8.96,6.45,18.6,6.45,28.92v10.96h-103.42v-18.49h84.5l-9.03,9.03c0-7.45-1.11-13.83-3.33-19.13-2.22-5.3-5.48-9.39-9.78-12.25-4.3-2.87-9.75-4.3-16.34-4.3s-12.18,1.54-16.77,4.62c-4.59,3.08-8.06,7.42-10.43,13.01-2.36,5.59-3.55,12.33-3.55,20.21,0,7.31,1.15,13.8,3.44,19.46,2.29,5.66,5.81,10.11,10.54,13.33,4.73,3.23,10.75,4.84,18.06,4.84s13.04-1.47,17.63-4.41c4.58-2.94,7.52-6.56,8.81-10.86h27.74c-1.72,8.03-5.02,15.05-9.89,21.07-4.87,6.02-11.07,10.68-18.6,13.98-7.53,3.29-16.09,4.94-25.69,4.94Z"/>
    <path style="fill:#fff;" d="M668.64,393.19v-23.65l57.62-69.23v3.44l-4.51-6.02,3.44,1.72h-56.76v-23h89.01v23.65l-57.62,69.23v-3.22l4.73,6.02-3.66-1.94h58.91v23h-91.16Z"/>
    <path style="fill:#fff;" d="M882.13,432.31c-13.19,0-23.79-3.41-31.82-10.21-8.03-6.81-12.04-17.24-12.04-31.28v-35.04c0-4.44-1.36-7.77-4.08-10-2.72-2.22-6.59-3.33-11.61-3.33v-27.09c5.01,0,8.88-1.11,11.61-3.33,2.72-2.22,4.08-5.55,4.08-10v-34.18c0-14.19,4.01-24.65,12.04-31.39,8.03-6.74,18.63-10.11,31.82-10.11h5.16v24.51h-5.16c-5.16,0-9.03,1.43-11.61,4.3-2.58,2.87-3.87,7.02-3.87,12.47v34.62c0,8.03-1.79,14.05-5.38,18.06-3.58,4.01-8.96,6.45-16.12,7.31v2.58c7.17.72,12.54,3.08,16.12,7.1,3.58,4.01,5.38,10.1,5.38,18.27v35.48c0,5.45,1.29,9.6,3.87,12.47,2.58,2.87,6.45,4.3,11.61,4.3h5.16v24.51h-5.16Z"/>
    <path style="fill:#fff;" d="M904.06,432.31v-24.51h5.16c5.16,0,9.03-1.43,11.61-4.3,2.58-2.87,3.87-7.02,3.87-12.47v-35.48c0-8.17,1.79-14.26,5.38-18.27,3.58-4.01,8.96-6.38,16.12-7.1v-2.58c-7.17-.86-12.54-3.29-16.12-7.31-3.58-4.01-5.38-10.03-5.38-18.06v-34.62c0-5.45-1.29-9.6-3.87-12.47-2.58-2.87-6.45-4.3-11.61-4.3h-5.16v-24.51h5.16c13.19,0,23.79,3.37,31.82,10.11,8.03,6.74,12.04,17.2,12.04,31.39v34.18c0,4.45,1.36,7.78,4.08,10,2.72,2.22,6.59,3.33,11.61,3.33v27.09c-5.02,0-8.89,1.11-11.61,3.33-2.72,2.22-4.08,5.56-4.08,10v35.04c0,14.05-4.01,24.47-12.04,31.28-8.03,6.81-18.63,10.21-31.82,10.21h-5.16Z"/>
</svg>