<?xml version="1.0" encoding="UTF-8"?>
<svg id="Capa_1" data-name="Capa 1" xmlns="http://www.w3.org/2000/svg" width="56.04" height="84.84" viewBox="0 0 56.04 84.84">
  <path d="m10.2,60.48c1.68,10.8,8.88,15.96,18.72,15.96s16.44-5.16,16.44-14.28-4.32-13.08-18.84-17.64C9.24,39.24,2.52,33.48,2.52,21.6,2.52,8.4,12.48,0,27.96,0c17.76,0,25.32,10.44,26.28,22.2h-10.2c-1.32-8.52-6.12-13.92-16.44-13.92-9.72,0-14.52,4.8-14.52,12.36s4.32,10.92,17.64,14.88c20.4,6.24,25.32,14.04,25.32,25.44,0,13.8-9.48,23.88-27.6,23.88-17.16,0-27.36-9.24-28.44-24.36h10.2Z"/>
</svg>