<?xml version="1.0" encoding="utf-8"?>
<!-- Generator: Adobe Illustrator 27.3.1, SVG Export Plug-In . SVG Version: 6.00 Build 0)  -->
<svg version="1.1" id="Capa_1" xmlns="http://www.w3.org/2000/svg" xmlns:xlink="http://www.w3.org/1999/xlink" x="0px" y="0px"
	 width="45px" height="45px" viewBox="0 0 45 45" style="enable-background:new 0 0 45 45;" xml:space="preserve">
<path d="M27.7,5.9c-0.4,0-0.9,0.1-1.3,0.1c-1.8,0.2-3.6,0.7-5.3,1.6c-1.7,0.8-3.3,2-4.6,3.3C16.4,11,16.3,11,16.2,11
	c-0.9-0.1-1.9-0.2-2.8-0.1c-1.9,0.1-3.8,0.6-5.5,1.4c-3.3,1.7-5.6,4.2-7,7.7c-0.5,1.3-0.8,2.6-0.9,4c0,0.1,0,0.2,0,0.2v1.5
	c0,0.4,0.1,0.7,0.1,1.1c0.2,1.5,0.6,3,1.3,4.4c1.6,3.1,4,5.4,7.1,6.8c1.5,0.6,3,1,4.6,1.1c0.1,0,0.1,0,0.2,0h16.1
	c0.3,0,0.7-0.1,1-0.1c1.8-0.2,3.6-0.7,5.3-1.6c2.8-1.4,5.2-3.5,6.8-6.2c1.1-1.8,1.9-3.7,2.2-5.8c0.1-0.6,0.2-1.3,0.2-1.9
	c0-0.1,0-0.2,0-0.2v-1.5c0-0.4-0.1-0.8-0.1-1.2c-0.2-1.8-0.7-3.6-1.6-5.3C42.8,14.5,41,11,37,8.5c0,0-3.1-2-6.2-2.4
	C30,6,29.1,5.9,29.1,5.9c-0.4,0-0.7,0-0.9,0L27.7,5.9z M28.7,8.8C31,9,32.8,9.7,34,10.2c2.5,1.2,4,2.8,4.5,3.5
	c1.6,1.8,2.6,3.9,3,6.2c0.3,1.4,0.3,2.9,0.1,4.4c-0.4,2.5-1.3,4.8-3,6.8c-1.9,2.3-4.5,4-7.5,4.6C29.7,36,28,36,26.4,35.8
	c-2.1-0.3-3.9-0.9-5.6-2.2c-0.4-0.3-0.9-0.7-1.3-1.1c-2.3-2.3-4.6-4.5-6.9-6.8c-0.6-0.6-0.6-1.2-0.3-1.8c0.3-0.6,0.9-1,1.6-0.9
	c0.4,0,0.7,0.3,1,0.5c2.1,2.1,4.1,4.1,6.2,6.2c1.6,1.6,3.6,2.6,5.8,2.9c3.7,0.5,6.8-0.6,9.2-3.4c1.3-1.5,2.1-3.3,2.5-5.3
	c0.5-3-0.2-5.7-2.1-8c-1.6-2.1-3.8-3.4-6.4-3.9c-2.7-0.5-5.2,0-7.4,1.5c-0.1,0-0.2,0.1-0.2,0c-0.8-0.6-1.7-1.1-2.6-1.6
	c0,0,0,0,0-0.1c0.7-0.6,1.5-1.1,2.4-1.5c1.5-0.8,3.2-1.3,5-1.5C27.6,8.8,28.1,8.8,28.7,8.8z M14.1,14.1c2.7,0,5.2,1,7.5,3.1
	c1.6,1.5,3.1,3.1,4.6,4.6c0.4,0.4,0.5,1,0.3,1.6s-0.7,0.9-1.3,1c-0.4,0.1-0.9-0.1-1.2-0.4c-1.5-1.5-2.9-2.9-4.4-4.4
	c-1.2-1.2-2.6-1.9-4.3-2.2c-3.7-0.7-7.4,1.5-8.7,5c-1.7,4.4,1,9.4,5.6,10.5c0.9,0.2,1.9,0.2,2.8,0.2c0.3,0,0.4,0.1,0.6,0.2
	c0.9,0.9,1.9,1.8,2.8,2.7c0.1,0.1,0.1,0.1,0.2,0.2c-0.1,0-0.2,0-0.3,0H14C9,36,4.6,32.4,3.5,27.4c-1.2-5.5,1.9-11.1,7.4-12.8
	C11.9,14.3,13,14.1,14.1,14.1L14.1,14.1z"/>
</svg>
