<svg xmlns="http://www.w3.org/2000/svg" width="893.131" height="102" viewBox="0 0 893.131 102">
  <g id="Group_86" data-name="Group 86" transform="translate(-513.434 -393)">
    <path id="Path_76" data-name="Path 76" d="M623.421,298V219.46h20.833c.113.98.234,2.04.357,3.116.213.056.448.2.643.156,4.725-1.015,9.425-2.807,14.171-2.933,12.447-.331,24.932-.314,37.364.321,6.766.345,8.486,2.443,9.584,8.922a123.573,123.573,0,0,1-.414,43.963c-.8,4.257-3.02,6.495-7.323,7.2-17.4,2.849-34.745,3.14-52.054-.631-.6-.129-1.2-.223-2.178-.4V298ZM644.4,250.891c0,5.488.084,10.979-.045,16.465-.045,1.928.567,2.939,2.4,3.529,9.407,3.023,18.993,4.206,28.735,2.3,4.583-.894,8.6-3.385,9.8-8.2a54.757,54.757,0,0,0-1.268-31.668c-.587-1.7-2.167-3.784-3.738-4.29-11.391-3.664-22.757-4.134-33.544,2.063a5.7,5.7,0,0,0-2.241,4.088C644.244,240.4,644.4,245.651,644.4,250.891Z" transform="translate(-15.566 197)"/>
    <path id="Path_77" data-name="Path 77" d="M529,252.25c5.843.124,11.692.452,17.527.288,3.146-.088,3.917,1.046,4.2,3.984a52.494,52.494,0,0,0,2.452,12.4,9.186,9.186,0,0,0,4.988,4.918,40.674,40.674,0,0,0,25.361.7c3.324-.95,5.547-2.85,6.251-6.212,1.043-4.981,1.9-10,2.914-15.391h20.353c.167,8.473.1,16.9-3.272,24.84a6.065,6.065,0,0,1-4.286,2.913,199.59,199.59,0,0,1-21.616,1.345c-15.2-.15-30.391-.782-45.586-1.224-4.136-.12-6.36-2.429-7.108-6.345s-1.45-7.812-2.173-11.719Z" transform="translate(-15.566 197)"/>
    <path id="Path_78" data-name="Path 78" d="M529,241.75c.692-4.295,1.455-8.581,2.056-12.889.572-4.1,2.561-6.239,6.884-6.964a193.359,193.359,0,0,1,67.367.5c3.038.557,5.066,2.053,5.544,5.191.946,6.214,1.82,12.439,2.771,18.985H592.409c-.428-3.346-.782-6.533-1.254-9.7-.678-4.554-3.206-7.142-7.8-8.38a49.2,49.2,0,0,0-25.124.13,8.185,8.185,0,0,0-6.7,7.087c-.625,3.538-1.032,7.114-1.622,11.29H529Z" transform="translate(-15.566 197)"/>
    <path id="Path_79" data-name="Path 79" d="M1045.2,282.121h-20.861V203.658h20.649v18.213c18.533-4.681,36.527-2.428,54.548.213,3.915.574,6.1,2.6,7.039,6.155a35.357,35.357,0,0,1,1.564,8.429c.153,14.611.071,29.224.059,43.836a12.848,12.848,0,0,1-.217,1.6H1087.2v-3.927c0-11.615.068-23.23-.053-34.844a28.043,28.043,0,0,0-1.174-7.705,10.16,10.16,0,0,0-8.4-7.508c-7.581-1.5-15.055-1.866-22.594.14-7.374,1.962-9.665,4.606-9.738,12.379-.117,12.363-.036,24.728-.039,37.092Z" transform="translate(-15.566 197)"/>
    <path id="Path_80" data-name="Path 80" d="M1276.211,259.688h21.379c-.737,5.634-1.208,11.05-2.233,16.359a5.9,5.9,0,0,1-6.005,4.778c-15.2.42-30.4.9-45.606,1.047a181.792,181.792,0,0,1-20.537-1.006c-6.932-.721-10.016-4.448-10.074-11.522-.1-12.365-.037-24.732-.042-37.1V227.79h-11.2V219.8c10.071-2.467,10.071-2.467,11.475-16.1H1234v15.394h62.689v8.5h-62.582c0,6.856,0,13.318,0,19.78,0,5.121-.036,10.243.041,15.363.1,6.409,2.185,9.3,8.322,11.273a40.874,40.874,0,0,0,23.588.869c7.591-2.042,9.415-4.146,9.953-11.868C1276.085,262.03,1276.132,261.046,1276.211,259.688Z" transform="translate(-15.566 197)"/>
    <path id="Path_81" data-name="Path 81" d="M896.185,282.113H875.334v-4.006q0-16.5-.008-33a46.958,46.958,0,0,0-.185-5.242c-.841-7.414-3.767-10.64-10.969-12.08a46.827,46.827,0,0,0-23.3,1.126c-3.523,1.08-5.627,3.078-6.213,6.637a63.053,63.053,0,0,0-1.227,9.244c-.149,11-.058,22-.058,32.995v4.279h-20.86V219.236c6.531,0,13.087-.063,19.636.106.595.016,1.151,1.523,1.753,2.377,18.182-4.626,36.593-2.286,55.006.584a6.1,6.1,0,0,1,5.375,4.548c.889,3.227,1.976,6.541,2.027,9.833.221,14.494.1,28.994.093,43.492A18.46,18.46,0,0,1,896.185,282.113Z" transform="translate(-15.566 197)"/>
    <path id="Path_82" data-name="Path 82" d="M717.6,252.622H737.44v-5.677H718.657c-.19-7.736.321-14.9,2.918-21.687.539-1.41,2.916-2.64,4.64-2.99a170.775,170.775,0,0,1,46.564-2.6c7.2.528,14.345,1.767,21.514,2.688,3.213.413,5.336,2.043,5.643,5.421.764,8.416,1.459,16.838,2.22,25.7H739.665c-.113,6.129.1,11.848,3.071,16.9,1,1.7,3.331,2.962,5.322,3.65,9.73,3.359,19.72,2.326,29.64,1.1a84.544,84.544,0,0,0,11.662-2.556c4.761-1.3,9.07-3.438,12.285-8.82,0,3.43.389,5.935-.122,8.24-.415,1.87-1.5,4.261-3.012,5.08-3.457,1.87-7.271,3.766-11.093,4.158-20.048,2.057-40.117.955-60.166-.446-3.554-.248-6-1.958-6.55-5.518C719.569,267.934,718.672,260.563,717.6,252.622ZM739.17,246.1h41.2c0-3.236.173-6.216-.04-9.168-.327-4.51-2.836-7.009-7.282-8.282a47.692,47.692,0,0,0-25.817.075c-3.545.93-5.776,2.929-6.456,6.433S739.724,242.228,739.17,246.1Z" transform="translate(-15.566 197)"/>
    <path id="Path_83" data-name="Path 83" d="M1390.919,253.734h-63.057c.965,5.275,1.376,10.255,2.933,14.847a9.54,9.54,0,0,0,5.639,5.25c15.815,4.446,31.4,2.7,46.533-3.161,2.73-1.057,4.891-3.586,7.462-5.547a45.72,45.72,0,0,1-.12,7.689,6.224,6.224,0,0,1-2.678,4.133c-3.657,1.794-7.511,3.883-11.45,4.291-19.934,2.067-39.892.918-59.833-.4-3.933-.261-6.408-2.273-6.995-6.033-1.114-7.119-1.9-14.288-2.9-22.017h21.067v-5.9h-20.134c.025-7.632.413-14.818,3.01-21.608.541-1.414,2.92-2.65,4.647-3a171.192,171.192,0,0,1,46.594-2.6c7.079.519,14.1,1.76,21.159,2.62,3.554.433,5.763,2.163,6.066,5.889C1389.535,236.483,1390.2,244.785,1390.919,253.734Zm-21.682-7.555c0-3.111.172-5.962-.038-8.785-.387-5.228-2.154-7.077-7.218-8.66a43.784,43.784,0,0,0-22.5-.822c-8.234,1.738-10.136,3.859-10.83,12.218-.162,1.941-.024,3.906-.024,6.049Z" transform="translate(-15.566 197)"/>
    <path id="Path_84" data-name="Path 84" d="M1422.131,203.7v78.352h-20.663V203.7Z" transform="translate(-15.566 197)"/>
    <path id="Path_85" data-name="Path 85" d="M1117.8,252.773h21.657c.621,4.132,1.224,8.162,1.833,12.191.864,5.706,3.866,8.951,9.82,10.044a49.649,49.649,0,0,0,20.736-.145c4.46-1.048,7.037-3.5,7.847-7.887.857-4.643,1.6-9.308,2.422-14.139h21.384c-1.153,7.947-2.139,15.559-3.415,23.122a5.5,5.5,0,0,1-5.691,4.952c-15.318.342-30.635.858-45.955.956-7.086.045-14.18-.7-21.268-1.131-3.227-.2-5.588-1.82-6.111-5.046C1119.846,268.241,1118.912,260.747,1117.8,252.773Z" transform="translate(-15.566 197)"/>
    <path id="Path_86" data-name="Path 86" d="M1139.329,246.556h-21.361c1.2-7.2,2.1-14.081,3.651-20.81.338-1.46,2.89-3.067,4.662-3.43a169.749,169.749,0,0,1,46.964-2.618c6.954.524,13.855,1.74,20.789,2.572,3.676.442,5.982,2.246,6.514,6.026.843,6,1.679,11.995,2.559,18.285h-21.034c-.6-3.741-1.136-7.407-1.806-11.048-.681-3.7-3-5.662-6.625-6.76-8.909-2.7-17.69-2.366-26.564.068-3.138.861-5.092,2.689-5.731,5.73C1140.53,238.458,1140.013,242.409,1139.329,246.556Z" transform="translate(-15.566 197)"/>
    <g id="Group_83" data-name="Group 83">
      <path id="Path_87" data-name="Path 87" d="M941.906,196l-17.819,15.176c7.125,7.733,13.966,15.166,20.817,22.59,6.947,7.529,13.935,15.022,20.816,22.612.805.889,1.762,2.577,1.432,3.415-3.391,8.617-2.249,16.89,1.788,25.473H913.556v-4.527q0-40.124-.005-80.247c0-1.5-.079-3-.121-4.492Z" transform="translate(-15.566 197)" fill="#ae0f10" style="isolation: isolate"/>
      <path id="Path_88" data-name="Path 88" d="M1002.6,196q.121,23.4.242,46.8c.01,1.983,0,3.967,0,6.526-8.539-3.873-16.816-4.9-24.48-1.207l-29.093-28.03,8.894-7.5-5.988-7.271-9.216,7.871-3.049-2.73,9.77-8.034L944.154,196Z" transform="translate(-15.566 197)" fill="#ae0f10" style="isolation: isolate"/>
      <path id="Path_89" data-name="Path 89" d="M1002.835,285.455c-6.847,0-13.163.053-19.475-.064a3.8,3.8,0,0,1-2.447-1.413c-4.186-5.165-5.915-11.025-3.643-17.434,3.973-11.2,17.316-11.364,24.664-4.575a3.491,3.491,0,0,1,.863,2.319C1002.863,271.124,1002.835,277.961,1002.835,285.455Z" transform="translate(-15.566 197)" fill="#ae0f10" style="isolation: isolate"/>
    </g>
  </g>
</svg>
